<svg xmlns="http://www.w3.org/2000/svg" viewBox="0 0 100 100" width="100" height="100">
  <defs>
    <linearGradient id="serviceGradient" x1="0%" y1="0%" x2="100%" y2="100%">
      <stop offset="0%" style="stop-color:#ff6b35;stop-opacity:1" />
      <stop offset="100%" style="stop-color:#f4a522;stop-opacity:1" />
    </linearGradient>
  </defs>
  
  <!-- Gear outline -->
  <path d="M50 25 L55 30 L62 28 L65 33 L72 35 L72 42 L78 47 L75 54 L78 60 L72 65 L72 72 L65 74 L62 79 L55 77 L50 82 L45 77 L38 79 L35 74 L28 72 L28 65 L22 60 L25 54 L22 47 L28 42 L28 35 L35 33 L38 28 L45 30 Z" 
        fill="url(#serviceGradient)" opacity="0.9"/>
  
  <!-- Inner gear circle -->
  <circle cx="50" cy="50" r="15" fill="#2d2d2d"/>
  <circle cx="50" cy="50" r="8" fill="url(#serviceGradient)"/>
  
  <!-- Wrench overlay -->
  <rect x="45" y="35" width="3" height="15" rx="1" fill="white" opacity="0.8"/>
  <path d="M43 33 L43 37 L45 37 L45 35 L48 35 L48 37 L50 37 L50 33 Z" 
        fill="white" opacity="0.8"/>
</svg>
